<svg xmlns="http://www.w3.org/2000/svg" role="img" width="24" height="24" style=""><rect id="backgroundrect" width="100%" height="100%" x="0" y="0" fill="none" stroke="none" class="" style=""/><title>ICON icon</title><g class="currentLayer" style=""><title>Layer 1</title><path d="M21.6045712080854,-1.5795230817738926e-9 a2.3970000000000002,2.3970000000000002 0 0 0 -0.47000000000000003,4.747 a2.3970000000000002,2.3970000000000002 0 1 0 0.47000000000000003,-4.746 zm-9.584,2.395 C6.7295712080853995,2.394999998420477 2.4365712080853994,6.685999998420477 2.4365712080853994,11.978999998420477 c0,2.142 0.7030000000000001,4.121 1.891,5.7170000000000005 l2.5860000000000003,-2.5860000000000003 a5.99,5.99 0 0 1 8.236,-8.238 l2.5860000000000003,-2.5860000000000003 a9.537,9.537 0 0 0 -5.715,-1.891 zm7.692,3.867 L17.126571208085398,8.848999998420478 a5.989,5.989 0 0 1 -8.236,8.238 l-2.5860000000000003,2.584 a9.543,9.543 0 0 0 5.716,1.8930000000000002 c5.293,0 9.583,-4.29 9.583,-9.584 c0,-2.142 -0.7040000000000001,-4.12 -1.891,-5.7170000000000005 zM2.395571208085399,19.165999998420478 a2.398,2.398 0 0 0 -0.47000000000000003,4.7490000000000006 a2.402,2.402 0 0 0 2.822,-2.823 a2.399,2.399 0 0 0 -2.352,-1.925 z" id="svg_1" class="" fill-opacity="1" fill="#31b8bb"/></g></svg>